<?xml version="1.0" encoding="utf-8"?>
<!-- Generator: Adobe Illustrator 16.0.0, SVG Export Plug-In . SVG Version: 6.00 Build 0)  -->
<!DOCTYPE svg PUBLIC "-//W3C//DTD SVG 1.1//EN" "http://www.w3.org/Graphics/SVG/1.1/DTD/svg11.dtd">
<svg version="1.1" id="Layer_1" xmlns="http://www.w3.org/2000/svg" xmlns:xlink="http://www.w3.org/1999/xlink" x="0px" y="0px"
	 width="32px" height="32px" viewBox="0 0 32 32" enable-background="new 0 0 32 32" xml:space="preserve">
<g>
	<path fill="#767676" d="M11.485,11.29c-0.673-0.32-1.357-0.48-2.05-0.48c-0.867,0-1.66,0.207-2.38,0.62
		c-0.72,0.414-1.287,0.983-1.7,1.71c-0.414,0.727-0.62,1.523-0.62,2.39s0.207,1.664,0.62,2.39c0.413,0.727,0.98,1.3,1.7,1.72
		c0.72,0.421,1.513,0.63,2.38,0.63c0.667,0,1.336-0.146,2.01-0.439s1.27-0.7,1.79-1.221l1.58,1.76
		c-0.733,0.748-1.587,1.338-2.56,1.771c-0.973,0.434-1.96,0.65-2.96,0.65c-1.347,0-2.58-0.32-3.7-0.96c-1.12-0.641-2-1.51-2.64-2.61
		s-0.96-2.316-0.96-3.65c0-1.333,0.327-2.546,0.98-3.64c0.653-1.093,1.543-1.953,2.67-2.58c1.126-0.626,2.376-0.94,3.75-0.94
		c1,0,1.98,0.2,2.94,0.6s1.78,0.954,2.46,1.66l-1.56,1.96C12.742,12.057,12.158,11.61,11.485,11.29z"/>
	<path fill="#767676" d="M26.775,8.59h2.6v14h-2.54l-7.2-9.64v9.64h-2.619v-14h2.539l7.221,9.66V8.59z"/>
</g>
</svg>
