<?xml version="1.0" encoding="utf-8"?>
<!-- Generator: Adobe Illustrator 16.0.0, SVG Export Plug-In . SVG Version: 6.00 Build 0)  -->
<!DOCTYPE svg PUBLIC "-//W3C//DTD SVG 1.1//EN" "http://www.w3.org/Graphics/SVG/1.1/DTD/svg11.dtd">
<svg version="1.1" id="Layer_1" xmlns="http://www.w3.org/2000/svg" xmlns:xlink="http://www.w3.org/1999/xlink" x="0px" y="0px"
	 width="32px" height="32px" viewBox="0 0 32 32" enable-background="new 0 0 32 32" xml:space="preserve">
<g>
	<path fill="#767676" d="M12.675,9.48c1.107,0.593,1.973,1.423,2.6,2.49c0.626,1.067,0.94,2.273,0.94,3.62s-0.317,2.55-0.95,3.609
		c-0.634,1.061-1.51,1.891-2.63,2.49c-1.12,0.601-2.393,0.9-3.82,0.9h-5.72v-14h5.82C10.315,8.59,11.568,8.887,12.675,9.48z
		 M11.285,19.64c0.687-0.394,1.223-0.94,1.61-1.64c0.387-0.7,0.58-1.497,0.58-2.39c0-0.893-0.2-1.697-0.6-2.41
		c-0.4-0.713-0.95-1.267-1.65-1.66c-0.7-0.394-1.483-0.59-2.35-0.59h-3.1v9.281h3.2C9.828,20.23,10.598,20.033,11.285,19.64z"/>
	<path fill="#767676" d="M18.555,8.59h10.261v2.34h-7.58v3.46h6.8v2.34h-6.8v3.52h7.819v2.34h-10.5V8.59z"/>
</g>
</svg>
