<?xml version="1.0" encoding="utf-8"?>
<!-- Generator: Adobe Illustrator 16.0.0, SVG Export Plug-In . SVG Version: 6.00 Build 0)  -->
<!DOCTYPE svg PUBLIC "-//W3C//DTD SVG 1.1//EN" "http://www.w3.org/Graphics/SVG/1.1/DTD/svg11.dtd">
<svg version="1.1" id="Layer_1" xmlns="http://www.w3.org/2000/svg" xmlns:xlink="http://www.w3.org/1999/xlink" x="0px" y="0px"
	 width="32px" height="32px" viewBox="0 0 32 32" enable-background="new 0 0 32 32" xml:space="preserve">
<rect x="14.436" y="5.827" fill="#767676" width="3.129" height="20.347"/>
<rect x="0.5" y="14.256" fill="#767676" width="31" height="3.488"/>
<polygon fill="#767676" points="3.913,5.827 13.867,13.093 13.867,5.827 "/>
<polygon fill="#767676" points="0.5,13.675 9.316,13.675 0.5,7.571 "/>
<polygon fill="#767676" points="0.5,5.827 0.5,6.699 10.739,13.675 12.162,13.675 "/>
<polygon fill="#767676" points="18.133,5.827 18.133,13.093 28.089,5.827 "/>
<polygon fill="#767676" points="22.684,13.675 31.5,13.675 31.5,7.571 "/>
<polygon fill="#767676" points="31.5,5.827 19.838,13.675 21.261,13.675 31.5,6.699 "/>
<polygon fill="#767676" points="18.133,26.174 28.089,26.174 18.133,18.907 "/>
<polygon fill="#767676" points="22.684,18.325 31.5,24.429 31.5,18.325 "/>
<polygon fill="#767676" points="19.838,18.325 31.5,26.174 31.5,25.302 21.261,18.325 "/>
<polygon fill="#767676" points="0.5,18.325 0.5,25.593 10.455,18.325 "/>
<polygon fill="#767676" points="5.051,26.174 13.867,26.174 13.867,20.07 "/>
<polygon fill="#767676" points="2.207,26.174 3.628,26.174 13.867,19.198 13.867,18.325 "/>
</svg>
