<?xml version="1.0" encoding="utf-8"?>
<!-- Generator: Adobe Illustrator 16.0.0, SVG Export Plug-In . SVG Version: 6.00 Build 0)  -->
<!DOCTYPE svg PUBLIC "-//W3C//DTD SVG 1.1//EN" "http://www.w3.org/Graphics/SVG/1.1/DTD/svg11.dtd">
<svg version="1.1" id="Layer_1" xmlns="http://www.w3.org/2000/svg" xmlns:xlink="http://www.w3.org/1999/xlink" x="0px" y="0px"
	 width="32px" height="32px" viewBox="0 0 32 32" enable-background="new 0 0 32 32" xml:space="preserve">
<g>
	<path fill="#767676" d="M5.095,8.59h10.26v2.34h-7.58v3.46h6.8v2.34h-6.8v3.52h7.82v2.34h-10.5V8.59z"/>
	<path fill="#767676" d="M24.904,11.17c-0.753-0.24-1.416-0.36-1.989-0.36c-0.641,0-1.147,0.12-1.521,0.36
		c-0.373,0.24-0.56,0.573-0.56,1c0,0.387,0.13,0.71,0.39,0.97c0.26,0.26,0.587,0.474,0.98,0.64c0.393,0.167,0.93,0.35,1.609,0.55
		c0.947,0.28,1.724,0.56,2.33,0.84c0.606,0.28,1.123,0.693,1.55,1.24c0.427,0.547,0.641,1.267,0.641,2.161
		c0,0.854-0.23,1.596-0.69,2.229s-1.093,1.116-1.899,1.45c-0.808,0.334-1.73,0.5-2.771,0.5c-1.094,0-2.16-0.203-3.199-0.61
		c-1.041-0.406-1.947-0.95-2.721-1.63l1.12-2.279c0.706,0.652,1.5,1.166,2.38,1.539s1.7,0.561,2.46,0.561
		c0.747,0,1.333-0.144,1.76-0.43c0.427-0.287,0.641-0.678,0.641-1.17c0-0.4-0.13-0.73-0.391-0.99c-0.26-0.26-0.59-0.471-0.989-0.631
		c-0.4-0.16-0.947-0.339-1.641-0.54c-0.946-0.28-1.72-0.553-2.32-0.82c-0.6-0.267-1.113-0.67-1.539-1.21
		c-0.428-0.54-0.641-1.25-0.641-2.13c0-0.813,0.217-1.523,0.65-2.13c0.434-0.606,1.047-1.077,1.84-1.41
		c0.793-0.333,1.71-0.5,2.75-0.5c0.906,0,1.803,0.134,2.69,0.4c0.886,0.267,1.676,0.626,2.369,1.08l-1.08,2.34
		C26.395,11.75,25.658,11.41,24.904,11.17z"/>
</g>
</svg>
