<?xml version="1.0" encoding="utf-8"?>
<!-- Generator: Adobe Illustrator 16.0.0, SVG Export Plug-In . SVG Version: 6.00 Build 0)  -->
<!DOCTYPE svg PUBLIC "-//W3C//DTD SVG 1.1//EN" "http://www.w3.org/Graphics/SVG/1.1/DTD/svg11.dtd">
<svg version="1.1" id="Layer_1" xmlns="http://www.w3.org/2000/svg" xmlns:xlink="http://www.w3.org/1999/xlink" x="0px" y="0px"
	 width="32px" height="32px" viewBox="0 0 32 32" enable-background="new 0 0 32 32" xml:space="preserve">
<g>
	<path fill="#767676" d="M14.97,22.465h-3.22l-4.4-6l-2.2,2.42v3.58H2.47v-14h2.68v6.98l6.32-6.98h3.16l-5.38,5.92L14.97,22.465z"/>
	<path fill="#767676" d="M25.75,22.465l-2.42-4.141c-0.107,0.014-0.273,0.021-0.5,0.021h-3.16v4.12h-2.68v-14h5.84
		c1.813,0,3.213,0.42,4.199,1.26c0.987,0.84,1.48,2.027,1.48,3.56c0,1.094-0.236,2.027-0.71,2.8s-1.163,1.354-2.069,1.739
		l3.08,4.641H25.75z M19.67,15.985h3.16c1.014,0,1.787-0.22,2.32-0.66s0.8-1.093,0.8-1.96c0-0.853-0.267-1.493-0.8-1.92
		s-1.307-0.64-2.32-0.64h-3.16V15.985z"/>
</g>
</svg>
