<?xml version="1.0" encoding="utf-8"?>
<!-- Generator: Adobe Illustrator 16.0.0, SVG Export Plug-In . SVG Version: 6.00 Build 0)  -->
<!DOCTYPE svg PUBLIC "-//W3C//DTD SVG 1.1//EN" "http://www.w3.org/Graphics/SVG/1.1/DTD/svg11.dtd">
<svg version="1.1" id="Layer_1" xmlns="http://www.w3.org/2000/svg" xmlns:xlink="http://www.w3.org/1999/xlink" x="0px" y="0px"
	 width="32px" height="32px" viewBox="0 0 32 32" enable-background="new 0 0 32 32" xml:space="preserve">
<g>
	<path fill="#767676" d="M2.535,8.59h11.42v2.38h-4.36v11.62h-2.7V10.97h-4.36V8.59z"/>
	<path fill="#767676" d="M24.615,22.59l-2.421-4.141c-0.106,0.014-0.273,0.021-0.5,0.021h-3.159v4.12h-2.68v-14h5.839
		c1.813,0,3.214,0.42,4.2,1.26c0.986,0.84,1.48,2.027,1.48,3.56c0,1.094-0.237,2.027-0.71,2.8c-0.474,0.773-1.164,1.354-2.07,1.739
		l3.08,4.641H24.615z M18.535,16.11h3.159c1.014,0,1.787-0.22,2.32-0.66s0.8-1.093,0.8-1.96c0-0.853-0.267-1.493-0.8-1.92
		s-1.307-0.64-2.32-0.64h-3.159V16.11z"/>
</g>
</svg>
