<?xml version="1.0" encoding="utf-8"?>
<!-- Generator: Adobe Illustrator 16.0.0, SVG Export Plug-In . SVG Version: 6.00 Build 0)  -->
<!DOCTYPE svg PUBLIC "-//W3C//DTD SVG 1.1//EN" "http://www.w3.org/Graphics/SVG/1.1/DTD/svg11.dtd">
<svg version="1.1" id="Layer_1" xmlns="http://www.w3.org/2000/svg" xmlns:xlink="http://www.w3.org/1999/xlink" x="0px" y="0px"
	 width="32px" height="32px" viewBox="0 0 32 32" enable-background="new 0 0 32 32" xml:space="preserve">
<g>
	<path fill-rule="evenodd" clip-rule="evenodd" fill="#FFFFFF" d="M0.5,5.83v20.5h30.76V5.83H0.5z M15.11,19.76
		c-0.16,0.17-0.33,0.32-0.51,0.471c-0.93,0.739-2.1,1.189-3.38,1.189c-1.48,0-2.82-0.6-3.79-1.56c-0.98-0.971-1.58-2.311-1.58-3.78
		c0-1.47,0.6-2.81,1.58-3.77c0.97-0.97,2.31-1.57,3.79-1.57c0.89,0,1.73,0.22,2.47,0.6c0.12,0.06,0.23,0.13,0.35,0.2
		c0.59,0.36,1.1,0.83,1.51,1.39c0.04,0.05-0.04,0.12-0.08,0.08c-0.11-0.09-0.22-0.16-0.33-0.24c-0.11-0.07-0.23-0.14-0.35-0.21
		c-0.62-0.33-1.34-0.51-2.1-0.51c-1.19,0-2.27,0.45-3.04,1.18c-0.78,0.73-1.26,1.74-1.26,2.85c0,1.11,0.48,2.12,1.26,2.85
		c0.77,0.73,1.85,1.19,3.04,1.19c0.53,0,1.03-0.101,1.5-0.26c0.08-0.03,0.16-0.061,0.23-0.091c0.38-0.159,0.73-0.369,1.05-0.619
		c0.04-0.03,0.12,0.04,0.08,0.08C15.42,19.42,15.27,19.6,15.11,19.76z M18.34,17.05l-1.05,1.5l-0.03-1.83l-1.76-0.55l1.74-0.59
		l-0.03-1.84l1.11,1.47l1.739-0.59L19,16.12l1.1,1.47L18.34,17.05z"/>
</g>
</svg>
