<?xml version="1.0" encoding="utf-8"?>
<!-- Generator: Adobe Illustrator 16.0.0, SVG Export Plug-In . SVG Version: 6.00 Build 0)  -->
<!DOCTYPE svg PUBLIC "-//W3C//DTD SVG 1.1//EN" "http://www.w3.org/Graphics/SVG/1.1/DTD/svg11.dtd">
<svg version="1.1" id="Layer_1" xmlns="http://www.w3.org/2000/svg" xmlns:xlink="http://www.w3.org/1999/xlink" x="0px" y="0px"
	 width="583px" height="121px" viewBox="0 0 583 121" enable-background="new 0 0 583 121" xml:space="preserve">
<g>
	<defs>
		<path id="SVGID_1_" d="M30.411,2.03C22.837,2.07,15.264,2.134,7.69,2.188c-0.845,0.005-1.702-0.01-2.542,0.081
			C3.876,2.397,3.09,3.13,2.832,4.391C2.708,5.016,2.648,5.667,2.643,6.309C2.617,14.992,2.59,23.674,2.59,32.352
			c-0.005,8.263,0.032,16.526,0.042,24.783c0.006,3.103,0.129,6.195,0.577,9.271c0.387,2.66,0.943,5.283,1.729,7.854
			c3.49,11.42,9.965,20.807,19.347,28.16c8.005,6.275,17.077,10.09,27.182,11.387c2.02,0.264,4.051,0.432,6.081,0.438
			c4.778,0.006,9.562,0.006,14.34,0.006c-2.264-0.324-4.514-0.771-6.755-1.342c-5.354-1.346-10.471-3.201-15.357-5.559
			c-0.086,0-0.21-0.043-0.377-0.125c-0.172-0.086-0.383-0.172-0.636-0.252c-0.42-0.254-0.738-0.529-0.948-0.824
			c-0.21-0.297-0.313-0.523-0.313-0.695c0-0.08,0.463-0.992,1.39-2.715c0.926-1.729,2.02-3.689,3.286-5.877
			c1.18-1.938,2.273-3.814,3.286-5.629c1.013-1.809,1.854-3.264,2.526-4.357c0.926,0.42,1.622,0.738,2.084,0.947
			c0.463,0.211,0.905,0.441,1.331,0.695c3.706,1.854,7.413,3.285,11.123,4.299c3.706,1.006,7.584,1.514,11.625,1.514h1.708
			c0.55,0,1.115-0.039,1.708-0.123c1.266,0,2.403-0.168,3.41-0.508c1.012-0.42,1.874-1.014,2.596-1.773
			c0.71-0.752,1.072-1.895,1.072-3.408c0-1.094-0.425-1.961-1.266-2.592c-0.84-0.635-1.729-1.158-2.65-1.578
			c-0.593-0.252-1.142-0.463-1.648-0.635c-1.432-0.588-2.887-1.029-4.358-1.326c-1.475-0.297-2.967-0.607-4.486-0.947
			c-2.02-0.42-4.003-0.863-5.941-1.33c-1.939-0.459-3.835-0.947-5.689-1.449c-1.939-0.592-3.75-1.244-5.435-1.961
			c-1.686-0.715-3.285-1.535-4.8-2.467c-3.118-1.934-5.607-4.488-7.459-7.643c-1.853-3.162-2.78-7.354-2.78-12.579
			c0-3.706,0.802-7.287,2.402-10.741c1.601-3.372,3.642-6.128,6.13-8.279c2.482-2.148,5.246-3.856,8.279-5.122
			c3.033-1.26,6.194-2.122,9.479-2.591c3.286-0.458,6.572-0.695,9.858-0.695c5.392,0,10.763,0.679,16.116,2.026
			c2.495,0.629,4.966,1.454,7.412,2.494c-3.484-6.443-8.16-12.071-14.053-16.85C88.101,9.664,81.75,6.39,74.721,4.444
			c-3.69-1.019-7.455-1.567-11.274-1.793c-2.354-0.139-4.708-0.291-7.062-0.377c-3.194-0.119-6.393-0.231-9.594-0.253
			C44.677,2.006,42.563,2,40.449,2C37.102,2,33.754,2.015,30.411,2.03"/>
	</defs>
	<clipPath id="SVGID_2_">
		<use xlink:href="#SVGID_1_"  overflow="visible"/>
	</clipPath>
	
		<linearGradient id="SVGID_3_" gradientUnits="userSpaceOnUse" x1="0.022" y1="120.9824" x2="0.9277" y2="120.9824" gradientTransform="matrix(116.2143 0 0 -116.2143 0 14118.0625)">
		<stop  offset="0" style="stop-color:#B8D844"/>
		<stop  offset="1" style="stop-color:#0A933C"/>
	</linearGradient>
	<rect x="2.584" y="2" clip-path="url(#SVGID_2_)" fill="url(#SVGID_3_)" width="105.225" height="112.25"/>
</g>
<g>
	<path fill="#FFFFFF" d="M187.264,85.563c0,3.637-0.592,7.053-1.778,10.254c-1.185,3.201-2.826,6.086-4.919,8.654
		c-2.094,2.568-4.584,4.799-7.468,6.695c-2.886,1.896-5.985,3.32-9.305,4.268c-1.423,0.395-2.905,0.73-4.446,1.008
		s-3.102,0.416-4.682,0.416c-1.582,0-3.141-0.139-4.682-0.416c-1.542-0.277-3.023-0.613-4.446-1.008
		c-3.318-0.947-6.401-2.371-9.246-4.268s-5.334-4.127-7.468-6.695c-2.133-2.568-3.792-5.453-4.978-8.654
		c-1.186-3.201-1.778-6.617-1.778-10.254V36.37h23.115v48.007c0,1.266,0.255,2.432,0.77,3.498c0.513,1.066,1.204,1.996,2.075,2.785
		c0.868,0.791,1.876,1.422,3.022,1.896c1.145,0.475,2.351,0.711,3.616,0.711c1.263,0,2.469-0.236,3.615-0.711
		c1.145-0.475,2.153-1.105,3.023-1.896c0.869-0.789,1.559-1.719,2.075-2.785c0.512-1.066,0.771-2.232,0.771-3.498V36.37h23.114
		V85.563z"/>
	<path fill="#FFFFFF" d="M235.47,91.135h-13.713v23.352h-22.521V36.37h36.153c3.871,0,7.604,0.692,11.202,2.074
		c3.595,1.384,6.775,3.319,9.542,5.809c2.765,2.489,4.979,5.414,6.637,8.771c1.66,3.36,2.49,6.974,2.49,10.846
		c0,3.953-0.827,7.586-2.483,10.904c-1.656,3.32-3.842,6.184-6.561,8.596c-2.719,2.41-5.893,4.307-9.516,5.689
		C243.073,90.443,239.33,91.135,235.47,91.135 M234.72,55.336h-12.607v15.054h12.607c2.043,0,3.771-0.73,5.186-2.193
		c1.414-1.463,2.121-3.141,2.121-5.037c0-1.975-0.728-3.773-2.179-5.394C238.393,56.148,236.684,55.336,234.72,55.336"/>
	<polygon fill="#FFFFFF" points="276.874,114.486 276.874,36.37 298.803,36.37 298.803,94.689 339.343,94.689 339.343,114.486 	"/>
	<polygon fill="#FFFFFF" points="373.482,87.459 373.482,114.486 350.96,114.486 350.96,87.459 325.475,36.37 350.604,36.37 
		362.28,60.908 373.838,36.37 399.086,36.37 	"/>
	<path fill="#FFFFFF" d="M435.952,116.857c-5.691,0-11.021-1.107-15.991-3.32c-4.969-2.211-9.28-5.195-12.937-8.947
		c-3.656-3.754-6.525-8.141-8.606-13.16c-2.083-5.016-3.125-10.33-3.125-15.943c0-5.609,1.042-10.922,3.125-15.942
		c2.081-5.017,4.95-9.404,8.606-13.158c3.656-3.752,7.968-6.736,12.937-8.949c4.971-2.211,10.3-3.32,15.991-3.32
		c5.215,0,10.232,0.969,15.053,2.904c4.819,1.938,9.443,4.919,13.869,8.95l-16.951,14.936c-4.11-2.924-8.06-4.386-11.854-4.386
		c-2.607,0-5.019,0.514-7.229,1.541c-2.215,1.027-4.132,2.411-5.749,4.148c-1.621,1.74-2.904,3.756-3.853,6.045
		c-0.949,2.295-1.423,4.703-1.423,7.23c0,2.529,0.452,4.961,1.362,7.291c0.909,2.332,2.174,4.367,3.793,6.104
		c1.619,1.74,3.537,3.123,5.749,4.15s4.624,1.539,7.232,1.539c6.003,0,11.219-2.922,15.646-8.77l17.424,14.461
		c-4.427,5.453-9.443,9.582-15.054,12.387C448.357,115.453,442.353,116.857,435.952,116.857"/>
	<path fill="#FFFFFF" d="M508.022,116.857c-5.69,0-11.064-1.088-16.121-3.262c-5.059-2.172-9.465-5.115-13.216-8.83
		c-3.756-3.713-6.719-8.098-8.891-13.158c-2.175-5.055-3.26-10.43-3.26-16.121c0-5.689,1.085-11.041,3.26-16.061
		c2.172-5.017,5.135-9.403,8.891-13.156c3.751-3.753,8.157-6.716,13.216-8.891c5.057-2.174,10.431-3.26,16.121-3.26
		c5.689,0,11.063,1.086,16.121,3.26c5.057,2.174,9.462,5.118,13.216,8.831c3.753,3.716,6.717,8.101,8.89,13.158
		c2.175,5.057,3.261,10.43,3.261,16.12c0,5.691-1.086,11.066-3.261,16.121c-2.173,5.061-5.137,9.445-8.89,13.158
		c-3.754,3.715-8.159,6.658-13.216,8.83C519.085,115.77,513.712,116.857,508.022,116.857 M508.082,55.574
		c-2.679,0-5.181,0.533-7.505,1.597c-2.325,1.063-4.335,2.502-6.027,4.312c-1.692,1.813-3.032,3.92-4.017,6.324
		s-1.477,4.943-1.477,7.621c0,2.682,0.492,5.223,1.477,7.625s2.324,4.529,4.017,6.381c1.692,1.854,3.702,3.311,6.027,4.373
		c2.324,1.063,4.826,1.594,7.505,1.594c2.678,0,5.178-0.531,7.503-1.594c2.323-1.063,4.332-2.52,6.026-4.373
		c1.693-1.852,3.013-3.979,3.958-6.381c0.944-2.402,1.419-4.943,1.419-7.625c0-2.678-0.475-5.217-1.419-7.621
		c-0.945-2.404-2.265-4.512-3.958-6.324c-1.694-1.81-3.703-3.25-6.026-4.312C513.26,56.107,510.76,55.574,508.082,55.574"/>
	<path fill="#FFFFFF" d="M554.78,39.454c-4.742,0-8.587,3.844-8.587,8.586c0,4.745,3.845,8.588,8.587,8.588s8.587-3.843,8.587-8.588
		C563.367,43.298,559.522,39.454,554.78,39.454 M554.78,55.353c-4.04,0-7.313-3.274-7.313-7.313c0-4.038,3.273-7.313,7.313-7.313
		c4.039,0,7.312,3.274,7.312,7.313C562.092,52.079,558.819,55.353,554.78,55.353"/>
	<path fill="#FFFFFF" d="M551.491,52.858v-9.636h4.095c1.029,0,1.777,0.085,2.244,0.258c0.467,0.174,0.841,0.482,1.121,0.924
		c0.28,0.443,0.421,0.949,0.421,1.52c0,0.722-0.213,1.32-0.637,1.791c-0.427,0.471-1.062,0.768-1.907,0.891
		c0.421,0.245,0.769,0.514,1.042,0.809c0.274,0.293,0.643,0.814,1.107,1.564l1.177,1.88h-2.326l-1.408-2.097
		c-0.499-0.75-0.841-1.221-1.024-1.416c-0.185-0.196-0.38-0.329-0.586-0.401c-0.206-0.072-0.532-0.108-0.979-0.108h-0.396v4.023
		H551.491z M553.436,47.297h1.439c0.935,0,1.518-0.04,1.749-0.119c0.233-0.079,0.415-0.214,0.546-0.407
		c0.132-0.192,0.197-0.434,0.197-0.722c0-0.326-0.087-0.587-0.259-0.786c-0.174-0.199-0.419-0.325-0.734-0.378
		c-0.157-0.021-0.631-0.033-1.42-0.033h-1.519V47.297z"/>
</g>
<g>
	<defs>
		<path id="SVGID_4_" d="M110.697,44.849c-1.686,2.99-3.496,6.131-5.435,9.416c-4.299-2.193-8.322-3.895-12.071-5.118
			c-3.75-1.222-7.773-1.831-12.071-1.831c-0.84,0-1.789,0.021-2.844,0.059c-1.05,0.044-2.021,0.237-2.904,0.572
			c-0.889,0.333-1.643,0.84-2.279,1.513c-0.63,0.679-0.948,1.643-0.948,2.909c0,0.759,0.21,1.476,0.635,2.149
			c0.334,0.674,1.072,1.244,2.208,1.708c1.138,0.463,2.678,0.946,4.617,1.454c1.852,0.501,3.895,0.991,6.129,1.448
			c2.231,0.469,4.525,1.034,6.884,1.707c2.359,0.594,4.761,1.288,7.207,2.084c2.44,0.805,4.741,1.814,6.89,3.033
			c2.149,1.223,4.083,2.656,5.812,4.299c0.808,0.764,1.536,1.6,2.176,2.504c0-4.363,0-8.73,0.01-13.098
			c0.012-3.384-0.124-6.756-0.65-10.102c-0.405-2.574-0.965-5.112-1.725-7.6C111.78,42.936,111.231,43.901,110.697,44.849"/>
	</defs>
	<clipPath id="SVGID_5_">
		<use xlink:href="#SVGID_4_"  overflow="visible"/>
	</clipPath>
	
		<linearGradient id="SVGID_6_" gradientUnits="userSpaceOnUse" x1="-0.0991" y1="120.9551" x2="0.8066" y2="120.9551" gradientTransform="matrix(47.018 0 0 -47.018 76.8125 5744.4688)">
		<stop  offset="0" style="stop-color:#B8D844"/>
		<stop  offset="1" style="stop-color:#0A933C"/>
	</linearGradient>
	<rect x="72.146" y="41.957" clip-path="url(#SVGID_5_)" fill="url(#SVGID_6_)" width="42.581" height="30.799"/>
</g>
</svg>
